<svg width="59" height="24" viewBox="0 0 59 24" fill="none" xmlns="http://www.w3.org/2000/svg">
<g clip-path="url(#clip0_318_1887)">
<path d="M40.2265 11.0751V13.4888L22.183 13.4605C21.5065 13.4605 20.9636 12.9106 20.9636 12.2395V11.0468L34.5834 11.067C34.6765 10.4403 34.7697 9.88638 34.8426 9.30417L23.6535 9.76913C23.3051 9.7853 23.0013 9.53058 22.9527 9.18287L22.7137 7.45242L34.9844 7.19366C35.0087 6.77722 35.0087 6.36077 35.0087 5.96455L24.2734 5.94837C23.7467 5.94837 23.3214 5.5198 23.3214 4.9942V3.5791L36.1835 3.59932C37.2044 3.59932 38.0308 4.42816 38.0268 5.44703V5.50363C38.0268 7.14918 38.0227 8.91199 37.646 11.067H40.2265V11.0751ZM26.0801 21.6519H38.1119C38.1119 21.6519 38.1281 21.6519 38.1281 21.664V23.9241C38.1281 23.9241 38.1159 23.9403 38.1078 23.9403H25.6345C24.2126 23.9403 23.058 22.788 23.0621 21.3689V18.1869L35.106 18.2071V17.0468L24.1437 17.0306C23.528 17.0306 23.0256 16.5292 23.0256 15.9106V14.73L38.1564 14.7543L38.1483 20.3904L26.0882 20.3702V21.6478L26.0801 21.6519Z" fill="#444444"/>
<path d="M53.2433 13.8072C50.2455 14.2641 47.5718 14.3328 43.6706 14.3247H43.6139C42.67 14.3247 41.9084 13.5565 41.9084 12.6185L41.9165 7.8072L48.5157 7.81933V6.10505L43.1764 6.09696C42.4674 6.09696 41.8962 5.52284 41.8962 4.81529V3.65896L51.5419 3.67513L51.5297 10.0997L44.9548 10.0875V11.8746C48.1349 11.8584 50.4116 11.7695 53.0408 11.353L53.2474 13.8112L53.2433 13.8072ZM55.9576 15.6226H58.9797L58.9675 23.9999L47.7095 23.9797C46.0202 23.9797 44.655 22.6091 44.655 20.9231L44.6631 15.6023H47.7055V17.4622L55.9535 17.4743V15.6185L55.9576 15.6226ZM55.9535 19.8193L47.7055 19.8072V20.725C47.7055 21.1778 48.0701 21.5457 48.5238 21.5457L55.9495 21.5579V19.8193H55.9535ZM58.9999 4.38672L58.9837 14.7452H55.917L55.9251 9.45275H52.6033V7.01071H55.9251L55.9333 2.88672H57.5051C58.3315 2.88672 58.9999 3.55788 58.9959 4.38268L58.9999 4.38672Z" fill="#444444"/>
<path d="M9.27293 23.9636C2.81956 23.9636 0 20.0216 0 15.0283V9.63881C0 2.70081 4.63444 0 10.071 0C16.6338 0 19.5019 3.56604 19.5019 7.13207C19.5019 12.3356 14.1666 13.6092 11.817 14.2925C11.1405 14.4865 8.64097 15.2305 8.07381 15.3922C5.87813 16.027 5.24616 16.7385 5.24616 17.5431C5.24616 18.9178 6.44933 20.1146 9.27293 20.1146C11.7279 20.1146 13.5225 19.2817 13.8223 16.7224H18.9591C18.4284 20.7736 15.9896 23.9636 9.27293 23.9636ZM9.85629 3.86119C7.00028 3.86119 5.13273 5.76146 5.13273 9.01213V12.4164C5.13273 12.4164 8.99341 11.2925 10.6057 10.8073C11.9548 10.3989 14.3733 9.54582 14.3733 7.41509C14.3733 5.56334 12.8662 3.86119 9.85629 3.86119Z" fill="#FDBB30"/>
</g>
<defs>
<clipPath id="clip0_318_1887">
<rect width="59" height="24" fill="white"/>
</clipPath>
</defs>
</svg>
