<svg xmlns="http://www.w3.org/2000/svg" width="20" height="20" viewBox="0 0 20 20" fill="none">
    <path d="M5.5 20.0001H14.4899C16.1467 20.0001 17.4899 18.657 17.4899 17.0001V5.84305L12.0769 0.0136719H5.5C3.84315 0.0136719 2.5 1.35682 2.5 3.01367V17.0001C2.5 18.657 3.84315 20.0001 5.5 20.0001Z" fill="#00733B" />
    <path d="M12.1339 4.85499L12.0776 0L17.5 5.8434H13.1339C12.5861 5.8434 12.1403 5.40272 12.1339 4.85499Z" fill="#4D9D76" />
    <path d="M6.31787 12.3047H5.48291L6.57178 14.0723L5.46338 15.8398H6.30811L7.04053 14.624H7.06494L7.79736 15.8398H8.64697L7.54346 14.0723L8.62256 12.3047H7.79248L7.06494 13.5205H7.04053L6.31787 12.3047Z" fill="white" />
    <path d="M9.0669 15.8398H11.3228V15.2344H9.79932V12.3047H9.0669V15.8398Z" fill="white" />
    <path d="M13.7153 13.3154H14.4185C14.4087 12.6904 13.8936 12.2559 13.1099 12.2559C12.3359 12.2559 11.7695 12.6831 11.772 13.3252C11.772 13.8428 12.1382 14.1406 12.7339 14.2871L13.1196 14.3799C13.5054 14.4751 13.7251 14.5874 13.7251 14.8291C13.7251 15.0928 13.4761 15.2734 13.0903 15.2734C12.6997 15.2734 12.4165 15.0928 12.3921 14.7363H11.6792C11.7012 15.4956 12.2456 15.8911 13.1001 15.8887C13.9619 15.8911 14.4648 15.4761 14.4673 14.8291C14.4648 14.2407 14.0132 13.9331 13.4077 13.7939L13.0903 13.7158C12.7852 13.6475 12.5215 13.5327 12.5239 13.2764C12.5264 13.042 12.7339 12.8711 13.105 12.8711C13.4639 12.8711 13.686 13.0347 13.7153 13.3154Z" fill="white" />
</svg>