<svg xmlns="http://www.w3.org/2000/svg" width="20" height="20" viewBox="0 0 20 20" fill="none">
    <path d="M9.16504 5.83073H10.8317V7.4974H9.16504V5.83073ZM9.16504 9.16406H10.8317V14.1641H9.16504V9.16406ZM9.99837 1.66406C5.39837 1.66406 1.66504 5.3974 1.66504 9.99739C1.66504 14.5974 5.39837 18.3307 9.99837 18.3307C14.5984 18.3307 18.3317 14.5974 18.3317 9.99739C18.3317 5.3974 14.5984 1.66406 9.99837 1.66406ZM9.99837 16.6641C6.32337 16.6641 3.33171 13.6724 3.33171 9.99739C3.33171 6.3224 6.32337 3.33073 9.99837 3.33073C13.6734 3.33073 16.665 6.3224 16.665 9.99739C16.665 13.6724 13.6734 16.6641 9.99837 16.6641Z" fill="currentColor" />
</svg>