<svg width="16" height="16" viewBox="0 0 16 16" fill="none" xmlns="http://www.w3.org/2000/svg">
<g clip-path="url(#clip0_713_2703)">
<path d="M7.99398 1.33203C4.31398 1.33203 1.33398 4.31203 1.33398 7.9987C1.33398 11.6854 4.31398 14.6654 7.99398 14.6654C11.674 14.6654 14.6673 11.6854 14.6673 7.9987C14.6673 4.31203 11.6807 1.33203 7.99398 1.33203ZM8.00065 13.332C5.05398 13.332 2.66732 10.9454 2.66732 7.9987C2.66732 5.05203 5.05398 2.66536 8.00065 2.66536C10.9473 2.66536 13.334 5.05203 13.334 7.9987C13.334 10.9454 10.9473 13.332 8.00065 13.332ZM8.66732 6.62536L9.37398 7.33203L10.0807 6.62536L10.7873 7.33203L11.494 6.62536L10.0807 5.21203L8.66732 6.62536ZM5.92065 6.62536L6.62732 7.33203L7.33398 6.62536L5.92065 5.21203L4.50732 6.62536L5.21398 7.33203L5.92065 6.62536ZM8.00065 11.6654C9.55398 11.6654 10.874 10.692 11.4073 9.33203H4.59398C5.12732 10.692 6.44732 11.6654 8.00065 11.6654Z" fill="currentColor" />
</g>
<defs>
<clipPath id="clip0_713_2703">
<rect width="16" height="16" fill="white" />
</clipPath>
</defs>
</svg>
