<svg xmlns="http://www.w3.org/2000/svg" width="11" height="11" viewBox="0 0 11 11" fill="none">
    <path d="M9.65833 10.8333L6.46667 7.64167C5.8 8.075 5.01667 8.33333 4.16667 8.33333C1.86667 8.33333 0 6.46667 0 4.16667C0 1.86667 1.86667 0 4.16667 0C6.46667 0 8.33333 1.86667 8.33333 4.16667C8.33333 5.01667 8.075 5.8 7.64167 6.45833L10.8333 9.65833L9.65833 10.8333ZM6.66667 4.16667C6.66667 2.79167 5.54167 1.66667 4.16667 1.66667C2.79167 1.66667 1.66667 2.79167 1.66667 4.16667C1.66667 5.54167 2.79167 6.66667 4.16667 6.66667C5.54167 6.66667 6.66667 5.54167 6.66667 4.16667Z" fill="currentColor"/>
</svg>
