<svg width="16" height="16" viewBox="0 0 16 16" fill="none" xmlns="http://www.w3.org/2000/svg">
<path d="M14.6673 7.33203H11.8873L14.0473 5.17203L13.1073 4.22536L10.0007 7.33203H8.66732V5.9987L11.774 2.89203L10.8273 1.95203L8.66732 4.11203V1.33203H7.33398V4.11203L5.17398 1.95203L4.22732 2.89203L7.33398 5.9987V7.33203H6.00065L2.89398 4.22536L1.95398 5.17203L4.11398 7.33203H1.33398V8.66536H4.11398L1.95398 10.8254L2.89398 11.772L6.00065 8.66536H7.33398V9.9987L4.22732 13.1054L5.17398 14.0454L7.33398 11.8854V14.6654H8.66732V11.8854L10.8273 14.0454L11.774 13.1054L8.66732 9.9987V8.66536H10.0007L13.1073 11.772L14.0473 10.8254L11.8873 8.66536H14.6673V7.33203Z" fill="currentColor" />
</svg>
