<svg xmlns="http://www.w3.org/2000/svg" width="32" height="32" viewBox="0 0 32 32" fill="none">
    <path d="M17.3334 13.3359H14.6667V10.6693H17.3334V13.3359ZM17.3334 8.0026H14.6667V1.33594H17.3334V8.0026ZM9.33337 24.0026C7.86671 24.0026 6.68004 25.2026 6.68004 26.6693C6.68004 28.1359 7.86671 29.3359 9.33337 29.3359C10.8 29.3359 12 28.1359 12 26.6693C12 25.2026 10.8 24.0026 9.33337 24.0026ZM22.6667 24.0026C21.2 24.0026 20.0134 25.2026 20.0134 26.6693C20.0134 28.1359 21.2 29.3359 22.6667 29.3359C24.1334 29.3359 25.3334 28.1359 25.3334 26.6693C25.3334 25.2026 24.1334 24.0026 22.6667 24.0026ZM10.8 17.3359H20.7334C21.7334 17.3359 22.6134 16.7893 23.0667 15.9626L28 6.61594L25.6667 5.33594L20.7334 14.6693H11.3734L5.69337 2.66927H1.33337V5.33594H4.00004L8.80004 15.4559L7.00004 18.7093C6.02671 20.4959 7.30671 22.6693 9.33337 22.6693H25.3334V20.0026H9.33337L10.8 17.3359Z" fill="currentColor" />
</svg>