<svg xmlns="http://www.w3.org/2000/svg" width="20" height="20" viewBox="0 0 20 20" fill="none">
    <path d="M15 9.16634V10.833H18.3333V9.16634H15ZM13.3333 14.6747C14.1333 15.2663 15.175 16.0497 16 16.6663C16.3333 16.2247 16.6666 15.7747 17 15.333C16.175 14.7163 15.1333 13.933 14.3333 13.333C14 13.783 13.6666 14.233 13.3333 14.6747ZM17 4.66634C16.6666 4.22467 16.3333 3.77467 16 3.33301C15.175 3.94967 14.1333 4.73301 13.3333 5.33301C13.6666 5.77467 14 6.22467 14.3333 6.66634C15.1333 6.06634 16.175 5.29134 17 4.66634ZM3.33329 7.49967C2.41663 7.49967 1.66663 8.24967 1.66663 9.16634V10.833C1.66663 11.7497 2.41663 12.4997 3.33329 12.4997H4.16663V15.833H5.83329V12.4997H6.66663L10.8333 14.9997V4.99967L6.66663 7.49967H3.33329ZM12.9166 9.99967C12.9166 8.89134 12.4333 7.89134 11.6666 7.20801V12.783C12.4333 12.108 12.9166 11.108 12.9166 9.99967Z" fill="black" />
</svg>
