<svg width="20" height="20" viewBox="0 0 20 20" fill="none" xmlns="http://www.w3.org/2000/svg">
<g clip-path="url(#clip0_29_2955)">
<path d="M9.16536 7.4987H10.832V4.9987H13.332V3.33203H10.832V0.832031H9.16536V3.33203H6.66536V4.9987H9.16536V7.4987ZM5.83203 14.9987C4.91536 14.9987 4.1737 15.7487 4.1737 16.6654C4.1737 17.582 4.91536 18.332 5.83203 18.332C6.7487 18.332 7.4987 17.582 7.4987 16.6654C7.4987 15.7487 6.7487 14.9987 5.83203 14.9987ZM14.1654 14.9987C13.2487 14.9987 12.507 15.7487 12.507 16.6654C12.507 17.582 13.2487 18.332 14.1654 18.332C15.082 18.332 15.832 17.582 15.832 16.6654C15.832 15.7487 15.082 14.9987 14.1654 14.9987ZM6.7487 10.832H12.957C13.582 10.832 14.132 10.4904 14.4154 9.9737L17.632 4.13203L16.182 3.33203L12.957 9.16536H7.10703L3.55703 1.66536H0.832031V3.33203H2.4987L5.4987 9.65703L4.3737 11.6904C3.76536 12.807 4.56536 14.1654 5.83203 14.1654H15.832V12.4987H5.83203L6.7487 10.832Z" fill="#222222"></path>
</g>
<defs>
<clipPath id="clip0_29_2955">
<rect width="20" height="20" fill="white" />
</clipPath>
</defs>
</svg>
