<svg xmlns="http://www.w3.org/2000/svg" width="32" height="32" viewBox="0 0 32 32" fill="none">
<g clip-path="url(#clip0_165_2980)">
<path d="M20.732 17.3307C21.732 17.3307 22.612 16.7841 23.0654 15.9574L27.8387 7.30406C28.332 6.42406 27.692 5.33073 26.6787 5.33073H6.94536L5.69203 2.66406H1.33203V5.33073H3.9987L8.7987 15.4507L6.9987 18.7041C6.02536 20.4907 7.30536 22.6641 9.33203 22.6641H25.332V19.9974H9.33203L10.7987 17.3307H20.732ZM8.21203 7.99739H24.412L20.732 14.6641H11.372L8.21203 7.99739ZM9.33203 23.9974C7.86536 23.9974 6.6787 25.1974 6.6787 26.6641C6.6787 28.1307 7.86536 29.3307 9.33203 29.3307C10.7987 29.3307 11.9987 28.1307 11.9987 26.6641C11.9987 25.1974 10.7987 23.9974 9.33203 23.9974ZM22.6654 23.9974C21.1987 23.9974 20.012 25.1974 20.012 26.6641C20.012 28.1307 21.1987 29.3307 22.6654 29.3307C24.132 29.3307 25.332 28.1307 25.332 26.6641C25.332 25.1974 24.132 23.9974 22.6654 23.9974Z" fill="#222222" />
</g>
<defs>
<clipPath id="clip0_165_2980">
<rect width="32" height="32" fill="white" />
</clipPath>
</defs>
</svg>
