<svg xmlns="http://www.w3.org/2000/svg" width="20" height="20" viewBox="0 0 20 20" fill="none">
    <path d="M12.5665 7.99297L9.99984 10.5596L7.43317 7.99297L6.24984 9.16797L9.99984 12.918L13.7498 9.16797L12.5665 7.99297ZM9.99984 1.66797C5.39984 1.66797 1.6665 5.4013 1.6665 10.0013C1.6665 14.6013 5.39984 18.3346 9.99984 18.3346C14.5998 18.3346 18.3332 14.6013 18.3332 10.0013C18.3332 5.4013 14.5998 1.66797 9.99984 1.66797ZM9.99984 16.668C6.3165 16.668 3.33317 13.6846 3.33317 10.0013C3.33317 6.31797 6.3165 3.33464 9.99984 3.33464C13.6832 3.33464 16.6665 6.31797 16.6665 10.0013C16.6665 13.6846 13.6832 16.668 9.99984 16.668Z" fill="currentColor" />
</svg>