<svg width="20" height="20" viewBox="0 0 20 20" fill="none" xmlns="http://www.w3.org/2000/svg">
    <path d="M14.1336 8.95703V6.45703H11.6336V5.20703H14.1336V2.70703H15.3836V5.20703H17.8836V6.45703H15.3836V8.95703H14.1336ZM6.98383 17.082C5.94702 17.082 5.0632 16.7172 4.33237 15.9874C3.60168 15.2577 3.23633 14.3726 3.23633 13.332C3.23633 12.6974 3.3848 12.1106 3.68174 11.5716C3.97883 11.0326 4.38591 10.5831 4.90299 10.2231V4.9987C4.90299 4.41648 5.10466 3.9237 5.50799 3.52036C5.91119 3.11703 6.40397 2.91536 6.98633 2.91536C7.56855 2.91536 8.06133 3.11703 8.46466 3.52036C8.86786 3.9237 9.06945 4.41648 9.06945 4.9987V10.2231C9.58654 10.5831 9.9923 11.0326 10.2867 11.5716C10.581 12.1106 10.7308 12.6974 10.7361 13.332C10.7308 14.3726 10.3633 15.2577 9.63362 15.9874C8.9039 16.7172 8.02063 17.082 6.98383 17.082ZM6.15299 8.33203H7.81966V4.9987C7.81966 4.76259 7.7398 4.56467 7.58008 4.40495C7.42036 4.24523 7.22244 4.16536 6.98633 4.16536C6.75022 4.16536 6.5523 4.24523 6.39258 4.40495C6.23286 4.56467 6.15299 4.76259 6.15299 4.9987V8.33203Z" fill="currentColor"/>
</svg>
