<svg width="20" height="20" viewBox="0 0 20 20" fill="none" xmlns="http://www.w3.org/2000/svg">
    <path d="M9.99967 18.3333C10.9163 18.3333 11.6663 17.5833 11.6663 16.6666H8.33301C8.33301 17.5833 9.08301 18.3333 9.99967 18.3333ZM14.9997 13.3333V9.16665C14.9997 6.60831 13.6413 4.46665 11.2497 3.89998V3.33331C11.2497 2.64165 10.6913 2.08331 9.99967 2.08331C9.30801 2.08331 8.74967 2.64165 8.74967 3.33331V3.89998C6.36634 4.46665 4.99967 6.59998 4.99967 9.16665V13.3333L3.33301 15V15.8333H16.6663V15L14.9997 13.3333ZM13.333 14.1666H6.66634V9.16665C6.66634 7.09998 7.92467 5.41665 9.99967 5.41665C12.0747 5.41665 13.333 7.09998 13.333 9.16665V14.1666Z" fill="currentColor"/>
</svg>