<svg width="20" height="20" viewBox="0 0 20 20" fill="none" xmlns="http://www.w3.org/2000/svg">
<path d="M10.0013 17.4987L8.79297 16.4154C7.39019 15.1515 6.23047 14.0612 5.3138 13.1445C4.39714 12.2279 3.66797 11.4049 3.1263 10.6758C2.58464 9.94661 2.20616 9.27648 1.99089 8.66536C1.77561 8.05425 1.66797 7.42925 1.66797 6.79036C1.66797 5.48481 2.10547 4.39453 2.98047 3.51953C3.85547 2.64453 4.94575 2.20703 6.2513 2.20703C6.97352 2.20703 7.66102 2.35981 8.3138 2.66536C8.96658 2.97092 9.52908 3.40148 10.0013 3.95703C10.4735 3.40148 11.036 2.97092 11.6888 2.66536C12.3416 2.35981 13.0291 2.20703 13.7513 2.20703C15.0569 2.20703 16.1471 2.64453 17.0221 3.51953C17.8971 4.39453 18.3346 5.48481 18.3346 6.79036C18.3346 7.42925 18.227 8.05425 18.0117 8.66536C17.7964 9.27648 17.418 9.94661 16.8763 10.6758C16.3346 11.4049 15.6055 12.2279 14.6888 13.1445C13.7721 14.0612 12.6124 15.1515 11.2096 16.4154L10.0013 17.4987ZM10.0013 15.2487C11.3346 14.0543 12.4319 13.0299 13.293 12.1758C14.1541 11.3216 14.8346 10.5786 15.3346 9.94661C15.8346 9.31467 16.1819 8.75217 16.3763 8.25911C16.5707 7.76606 16.668 7.27648 16.668 6.79036C16.668 5.95703 16.3902 5.26259 15.8346 4.70703C15.2791 4.15148 14.5846 3.8737 13.7513 3.8737C13.0985 3.8737 12.4944 4.05773 11.9388 4.42578C11.3832 4.79384 11.0013 5.26259 10.793 5.83203H9.20963C9.0013 5.26259 8.61936 4.79384 8.0638 4.42578C7.50825 4.05773 6.90408 3.8737 6.2513 3.8737C5.41797 3.8737 4.72352 4.15148 4.16797 4.70703C3.61241 5.26259 3.33464 5.95703 3.33464 6.79036C3.33464 7.27648 3.43186 7.76606 3.6263 8.25911C3.82075 8.75217 4.16797 9.31467 4.66797 9.94661C5.16797 10.5786 5.84852 11.3216 6.70963 12.1758C7.57075 13.0299 8.66797 14.0543 10.0013 15.2487Z" fill="#222222"/>
</svg>
