<svg width="16" height="16" viewBox="0 0 16 16" fill="none" xmlns="http://www.w3.org/2000/svg">
<path d="M14.6667 10V11.3333H3.33333V3.33333H2V2H4.66667V10H14.6667ZM4.66 12C3.92667 12 3.33333 12.6 3.33333 13.3333C3.33333 14.0667 3.92667 14.6667 4.66 14.6667C5.4 14.6667 6 14.0667 6 13.3333C6 12.6 5.4 12 4.66 12ZM13.3267 12C12.5933 12 12 12.6 12 13.3333C12 14.0667 12.5933 14.6667 13.3267 14.6667C14.06 14.6667 14.6667 14.0667 14.6667 13.3333C14.6667 12.6 14.0667 12 13.3267 12ZM9.33333 9.33333H5.33333V5.33333H9.33333V9.33333ZM14 9.33333H10V5.33333H14V9.33333Z" fill="black"/>
</svg>
