<svg width="16" height="16" viewBox="0 0 16 16" fill="none" xmlns="http://www.w3.org/2000/svg">
<path fill-rule="evenodd" clip-rule="evenodd" d="M8.00065 1.33203C4.32065 1.33203 1.33398 4.3187 1.33398 7.9987C1.33398 11.6787 4.32065 14.6654 8.00065 14.6654C11.6807 14.6654 14.6673 11.6787 14.6673 7.9987C14.6673 4.3187 11.6807 1.33203 8.00065 1.33203ZM2.66732 7.9987C2.66732 5.05203 5.05398 2.66536 8.00065 2.66536C9.23398 2.66536 10.3673 3.08536 11.2673 3.79203L3.79398 11.2654C3.08732 10.3654 2.66732 9.23203 2.66732 7.9987ZM8.00065 13.332C6.76732 13.332 5.63398 12.912 4.73398 12.2054L12.2073 4.73203C12.914 5.63203 13.334 6.76536 13.334 7.9987C13.334 10.9454 10.9473 13.332 8.00065 13.332Z" fill="black"/>
</svg>
