<svg width="49" height="20" viewBox="0 0 49 20" fill="none" xmlns="http://www.w3.org/2000/svg">
<g clip-path="url(#clip0_29_4361)">
<path d="M33.4101 9.23101V11.2425L18.4248 11.2189C17.8629 11.2189 17.4121 10.7607 17.4121 10.2014V9.20742L28.7234 9.22427C28.8008 8.70203 28.8782 8.24044 28.9388 7.75527L19.6461 8.14273C19.3568 8.15621 19.1044 7.94394 19.0641 7.65419L18.8656 6.21214L29.0565 5.99651C29.0767 5.64947 29.0767 5.30243 29.0767 4.97225L20.1609 4.95877C19.7235 4.95877 19.3702 4.60163 19.3702 4.16362V2.98438L30.0524 3.00122C30.9002 3.00122 31.5866 3.69192 31.5832 4.54098V4.58815C31.5832 5.95944 31.5799 7.42845 31.267 9.22427H33.4101V9.23101ZM21.6614 18.045H31.6539C31.6539 18.045 31.6673 18.045 31.6673 18.0551V19.9386C31.6673 19.9386 31.6572 19.952 31.6505 19.952H21.2913C20.1104 19.952 19.1515 18.9918 19.1549 17.8092V15.1576L29.1574 15.1744V14.2074L20.0532 14.1939C19.5418 14.1939 19.1246 13.7762 19.1246 13.2607V12.2768L31.6909 12.297L31.6841 16.9938L21.6682 16.977V18.0417L21.6614 18.045Z" fill="#444444"/>
<path d="M44.2207 11.5067C41.731 11.8874 39.5105 11.9447 36.2705 11.9379H36.2234C35.4395 11.9379 34.807 11.2978 34.807 10.5161L34.8137 6.50665L40.2944 6.51676V5.08819L35.86 5.08145C35.2713 5.08145 34.7969 4.60301 34.7969 4.01339V3.04978L42.8077 3.06326L42.7976 8.41703L37.337 8.40692V9.89614C39.9781 9.88266 41.869 9.80854 44.0525 9.4615L44.2241 11.51L44.2207 11.5067ZM46.4749 13.0195H48.9848L48.9747 20.0006L39.6249 19.9837C38.2219 19.9837 37.0881 18.8416 37.0881 17.4366L37.0948 13.0026H39.6215V14.5525L46.4716 14.5626V13.0161L46.4749 13.0195ZM46.4716 16.5168L39.6215 16.5067V17.2715C39.6215 17.6488 39.9243 17.9554 40.3011 17.9554L46.4682 17.9655V16.5168H46.4716ZM49.0016 3.65625L48.9882 12.2883H46.4413L46.448 7.87795H43.6891V5.84291H46.448L46.4547 2.40625H47.7601C48.4465 2.40625 49.0016 2.96555 48.9983 3.65288L49.0016 3.65625Z" fill="#444444"/>
<path d="M7.70125 19.9697C2.34166 19.9697 0 16.6846 0 12.5236V8.03234C0 2.25067 3.84894 0 8.36405 0C13.8145 0 16.1965 2.9717 16.1965 5.9434C16.1965 10.2796 11.7655 11.341 9.81413 11.9104C9.25227 12.0721 7.17639 12.692 6.70537 12.8268C4.88183 13.3558 4.35698 13.9488 4.35698 14.6193C4.35698 15.7648 5.35622 16.7621 7.70125 16.7621C9.74011 16.7621 11.2306 16.0681 11.4795 13.9353H15.7457C15.3049 17.3113 13.2795 19.9697 7.70125 19.9697ZM8.18573 3.21765C5.81379 3.21765 4.26277 4.80121 4.26277 7.51011V10.347C4.26277 10.347 7.4691 9.41038 8.80816 9.00606C9.92852 8.66577 11.9371 7.95485 11.9371 6.17924C11.9371 4.63612 10.6855 3.21765 8.18573 3.21765Z" fill="#FFBB33"/>
</g>
<defs>
<clipPath id="clip0_29_4361">
<rect width="49" height="20" fill="white"/>
</clipPath>
</defs>
</svg>
