<svg preserveAspectRatio="none" width="100%" height="100%" overflow="visible" style="display: block;" viewBox="0 0 20 20" fill="none" xmlns="http://www.w3.org/2000/svg">
<g id="thermometer_minus_24dp_E3E3E3_FILL1_wght300_GRAD0_opsz24 1">
<path id="Vector" d="M11.6336 6.45964V5.20964H17.8836V6.45964H11.6336ZM6.98299 17.0846C5.94452 17.0846 5.06049 16.7198 4.33091 15.9901C3.60119 15.2603 3.23633 14.3752 3.23633 13.3346C3.23633 12.7001 3.3848 12.1132 3.68174 11.5742C3.97883 11.0352 4.38591 10.5857 4.90299 10.2257V5.0013C4.90299 4.41908 5.10466 3.9263 5.50799 3.52297C5.91119 3.11963 6.40397 2.91797 6.98633 2.91797C7.56855 2.91797 8.06133 3.11963 8.46466 3.52297C8.86786 3.9263 9.06945 4.41908 9.06945 5.0013V10.2257C9.58654 10.5857 9.99362 11.0352 10.2907 11.5742C10.5876 12.1132 10.7361 12.7001 10.7361 13.3346C10.7361 14.3752 10.3702 15.2603 9.63841 15.9901C8.90647 16.7198 8.02133 17.0846 6.98299 17.0846ZM4.48633 13.3346H9.48633C9.48633 12.9319 9.39952 12.5569 9.22591 12.2096C9.0523 11.8624 8.80577 11.5707 8.48633 11.3346L7.81966 10.8346V5.0013C7.81966 4.76519 7.7398 4.56727 7.58008 4.40755C7.42036 4.24783 7.22244 4.16797 6.98633 4.16797C6.75022 4.16797 6.5523 4.24783 6.39258 4.40755C6.23286 4.56727 6.15299 4.76519 6.15299 5.0013V10.8346L5.48633 11.3346C5.16688 11.5707 4.92036 11.8624 4.74674 12.2096C4.57313 12.5569 4.48633 12.9319 4.48633 13.3346Z" fill="var(--fill-0, #1876D2)"/>
</g>
</svg>
